<?xml version="1.0" encoding="utf-8"?><svg viewBox="0 0 800 800" xmlns="http://www.w3.org/2000/svg" xmlns:xlink="http://www.w3.org/1999/xlink"><style>:root>svg{display:none}:root>svg:target{display:block}</style><svg viewBox="0 0 13 9" id="arrow-left" xmlns="http://www.w3.org/2000/svg"><path d="M13 4.5H2m0 0L5.667 8M2 4.5L5.667 1"/></svg><svg viewBox="0 0 13 9" id="arrow-right" xmlns="http://www.w3.org/2000/svg"><path d="M0 4.5h11m0 0L7.333 1M11 4.5L7.333 8"/></svg><svg viewBox="0 0 10 13" id="icon-bookmark" xmlns="http://www.w3.org/2000/svg"><path d="M.625 0h8.75c.166 0 .325.066.442.184A.632.632 0 0110 .63v12.055a.317.317 0 01-.161.276.31.31 0 01-.318-.01L5 10.096.479 12.95a.31.31 0 01-.436-.106.316.316 0 01-.043-.16V.63C0 .463.066.303.183.184A.623.623 0 01.625 0zM8.75 1.26h-7.5v9.717L5 8.61l3.75 2.368V1.26z"/></svg><svg viewBox="0 0 11 20" id="icon-facebook" xmlns="http://www.w3.org/2000/svg"><path d="M7.333 11.5h2.62L11 7.5H7.333v-2c0-1.03 0-2 2.096-2H11V.14C10.659.097 9.369 0 8.007 0 5.163 0 3.143 1.657 3.143 4.7v2.8H0v4h3.143V20h4.19v-8.5z"/></svg><svg viewBox="0 0 20 20" id="icon-insta" xmlns="http://www.w3.org/2000/svg"><path d="M10 0c2.717 0 3.056.01 4.122.06 1.065.05 1.79.217 2.428.465.66.254 1.216.598 1.772 1.153.509.5.902 1.105 1.153 1.772.247.637.415 1.363.465 2.428.047 1.066.06 1.405.06 4.122 0 2.717-.01 3.056-.06 4.122-.05 1.065-.218 1.79-.465 2.428a4.883 4.883 0 01-1.153 1.772c-.5.508-1.105.902-1.772 1.153-.637.247-1.363.415-2.428.465-1.066.047-1.405.06-4.122.06-2.717 0-3.056-.01-4.122-.06-1.065-.05-1.79-.218-2.428-.465a4.89 4.89 0 01-1.772-1.153A4.904 4.904 0 01.525 16.55C.277 15.913.11 15.187.06 14.122.013 13.056 0 12.717 0 10c0-2.717.01-3.056.06-4.122.05-1.066.217-1.79.465-2.428a4.88 4.88 0 011.153-1.772A4.897 4.897 0 013.45.525C4.088.277 4.812.11 5.878.06 6.944.013 7.283 0 10 0zm0 5a5 5 0 100 10 5 5 0 000-10zm6.5-.25a1.25 1.25 0 10-2.5 0 1.25 1.25 0 002.5 0zM10 7a3 3 0 110 6 3 3 0 010-6z"/></svg><svg viewBox="0 0 14 14" id="icon-level-middle" xmlns="http://www.w3.org/2000/svg"><circle cx="7" cy="7" r="6"/><path d="M7 13A6 6 0 007 1"/></svg><svg viewBox="0 0 14 14" id="icon-level-simple" xmlns="http://www.w3.org/2000/svg"><circle cx="7" cy="7" r="6"/><path d="M13 7a6 6 0 00-6-6"/></svg><svg viewBox="0 0 72 72" id="icon-menu-burger" xmlns="http://www.w3.org/2000/svg"><path d="M16 26h40M16 36h40M16 46h40" stroke-linecap="round" stroke-linejoin="round" stroke-miterlimit="10" stroke-width="2"/></svg><svg viewBox="0 0 48 48" id="icon-menu-cross" xmlns="http://www.w3.org/2000/svg"><path d="M41 43a2 2 0 01-1.41-.59L5.62 8.44a2 2 0 012.82-2.82l33.94 33.94A2 2 0 0141 43z"/><path d="M7 43a2 2 0 01-1.41-3.41L39.56 5.62a2 2 0 012.83 2.83L8.44 42.38A2 2 0 017 43z"/></svg><svg viewBox="0 0 13 16" id="icon-pin" xmlns="http://www.w3.org/2000/svg"><path d="M11.096 11.314L6.5 16l-4.596-4.686A6.669 6.669 0 01.124 7.92a6.748 6.748 0 01.37-3.829A6.601 6.601 0 012.89 1.117 6.411 6.411 0 016.5 0c1.286 0 2.542.389 3.611 1.117a6.602 6.602 0 012.394 2.974 6.748 6.748 0 01.37 3.83 6.668 6.668 0 01-1.779 3.393zM6.5 8.1c.383 0 .75-.155 1.021-.431.271-.276.423-.651.423-1.042 0-.39-.152-.765-.423-1.041A1.43 1.43 0 006.5 5.155c-.383 0-.75.155-1.021.431-.271.276-.423.65-.423 1.041 0 .391.152.766.423 1.042.27.276.638.431 1.021.431z"/></svg><svg viewBox="0 0 15 15" id="icon-search" xmlns="http://www.w3.org/2000/svg"><path d="M14 14l-3.142-3.142m1.697-4.08A5.778 5.778 0 111 6.778a5.778 5.778 0 0111.556 0z"/></svg><svg viewBox="0 0 20 16" id="icon-twitter" xmlns="http://www.w3.org/2000/svg"><path d="M19.999 1.9a8.33 8.33 0 01-2.357.635A4.063 4.063 0 0019.448.3a8.281 8.281 0 01-2.606.98A4.124 4.124 0 0014.513.054a4.162 4.162 0 00-2.605.424 4.065 4.065 0 00-1.804 1.898 3.978 3.978 0 00-.254 2.587 11.8 11.8 0 01-4.685-1.225A11.617 11.617 0 011.392.744a3.974 3.974 0 00-.555 2.03c0 1.4.724 2.637 1.825 3.36A4.14 4.14 0 01.804 5.63v.05a4 4 0 00.928 2.557A4.118 4.118 0 004.095 9.64a4.196 4.196 0 01-1.854.07 4.043 4.043 0 001.46 2.007 4.15 4.15 0 002.373.797 8.288 8.288 0 01-2.868 1.43A8.365 8.365 0 010 14.186 11.746 11.746 0 006.29 16c7.547 0 11.675-6.152 11.675-11.488 0-.174-.005-.35-.013-.522A8.262 8.262 0 0020 1.9h-.001z"/></svg><svg viewBox="0 0 13 15" id="icon-user" xmlns="http://www.w3.org/2000/svg"><path d="M12 14v-1.444c0-.767-.29-1.501-.806-2.043a2.685 2.685 0 00-1.944-.846h-5.5c-.73 0-1.429.304-1.945.846A2.965 2.965 0 001 12.556V14M9.25 3.889c0 1.595-1.231 2.889-2.75 2.889s-2.75-1.294-2.75-2.89C3.75 2.294 4.981 1 6.5 1s2.75 1.293 2.75 2.889z"/></svg><svg viewBox="0 0 99 21" id="logo" xmlns="http://www.w3.org/2000/svg"><path d="M.728.56h4.2l2.4 12.264L9.872.56h4.056l.36 19.44h-2.88l-.312-13.2L8.6 20H6.152L3.584 6.728 3.296 20H.392L.728.56zm21.871 19.704c-2.064 0-3.535-.536-4.416-1.608-.88-1.088-1.32-2.68-1.32-4.776V6.632c0-2.096.44-3.672 1.32-4.728C19.063.848 20.535.32 22.6.32c2.049 0 3.512.536 4.392 1.608.896 1.056 1.345 2.624 1.345 4.704v7.272c0 2.08-.448 3.664-1.345 4.752-.88 1.072-2.343 1.608-4.392 1.608zm0-2.832c.672 0 1.12-.224 1.345-.672.24-.464.36-1.096.36-1.896V5.672c0-.8-.12-1.416-.36-1.848-.224-.448-.672-.672-1.345-.672-.672 0-1.128.224-1.367.672-.224.432-.337 1.048-.337 1.848v9.192c0 .816.113 1.448.337 1.896.224.448.68.672 1.367.672zm13.853 2.832c-1.44 0-2.568-.24-3.384-.72-.816-.496-1.392-1.208-1.728-2.136-.336-.928-.504-2.112-.504-3.552V.56h3.888v13.848c0 .928.112 1.656.336 2.184.224.528.688.792 1.392.792s1.168-.264 1.392-.792c.224-.528.336-1.256.336-2.184V.56h3.912v13.296c0 1.44-.168 2.624-.504 3.552a3.993 3.993 0 01-1.752 2.136c-.816.48-1.944.72-3.384.72zM44.855.56h2.76l4.32 10.104V.56h3.288V20h-2.664l-4.32-10.752V20h-3.384V.56zm15.113 2.928h-3V.56h9.936v2.928h-2.952V20h-3.984V3.488zM70.772.56h4.392L78.908 20H75.26l-.72-4.272h-3.072L70.724 20h-3.72L70.772.56zm3.384 12.72L72.98 5.456l-1.152 7.824h2.328zM80.926.56h3.936V20h-3.936V.56zm6.89 0h2.76l4.32 10.104V.56h3.288V20H95.52L91.2 9.248V20h-3.384V.56z"/></svg><svg viewBox="0 0 1 13" id="vertical-line" xmlns="http://www.w3.org/2000/svg"><path d="M.5 0v13"/></svg></svg>